<svg width="18" height="19" viewBox="0 0 18 19" fill="none" xmlns="http://www.w3.org/2000/svg">
<path d="M9.94169 18.5397L8.58336 15.1674C9.8917 14.6567 11.1167 13.9699 12.25 13.1686L9.94169 18.5397ZM3.70003 10.0076L0.508362 8.57239L5.59169 6.1334C4.83336 7.33088 4.18336 8.62522 3.70003 10.0076ZM15.0167 2.52334C15.25 2.52334 15.4584 2.52334 15.6334 2.56736C15.775 3.79126 15.6167 6.3095 12.8834 9.19755C11.4667 10.7032 9.77503 11.8567 7.87503 12.6227L6.08336 10.7736C6.85003 8.73969 7.9417 6.95227 9.35003 5.46422C11.65 3.03403 13.7 2.52334 15.0167 2.52334ZM15.0167 0.762329C13.3667 0.762329 10.8667 1.36988 8.1667 4.22271C6.3417 6.15101 5.25003 8.27302 4.5417 10.1309C4.30836 10.7913 4.4667 11.5133 4.92503 12.0064L6.70003 13.873C7.01669 14.2076 7.4417 14.4101 7.88336 14.4101C8.07503 14.4101 8.27503 14.3573 8.46669 14.2781C10.25 13.556 12.2334 12.3762 14.0584 10.4479C18.775 5.46422 17.0084 1.10573 17.0084 1.10573C17.0084 1.10573 16.25 0.762329 15.0167 0.762329ZM11.1167 7.33088C10.4667 6.64409 10.4667 5.52585 11.1167 4.83906C11.7667 4.15227 12.825 4.15227 13.475 4.83906C14.1167 5.52585 14.125 6.64409 13.475 7.33088C12.825 8.01767 11.7667 8.01767 11.1167 7.33088ZM6.40003 13.556L5.22503 12.3145L6.40003 13.556ZM4.20003 18.3724L7.23336 15.1674C6.95003 15.0881 6.67503 14.956 6.42503 14.7711L3.02503 18.3724H4.20003ZM0.666695 18.3724H1.8417L5.8167 14.1812L4.63336 12.9397L0.666695 17.1309V18.3724ZM0.666695 15.8806L4.07503 12.2881C3.90003 12.024 3.77503 11.7422 3.70003 11.434L0.666695 14.6391V15.8806Z" fill="#0239FE"/>
</svg>
